/* XPM */
static const char * ddAddColumnCursor_xpm[] = {
"32 32 48 1",
" 	c None",
".	c #000000",
"+	c #FFFFFF",
"@	c #2195E7",
"#	c #90CAF3",
"$	c #B4D6EE",
"%	c #DDDDDD",
"&	c #DEDEDE",
"*	c #DFDFDF",
"=	c #E5E5E5",
"-	c #E6E6E6",
";	c #87BFE7",
">	c #A6A6A6",
",	c #E7E7E7",
"'	c #E8E8E8",
")	c #ECECEC",
"!	c #AEAEAE",
"~	c #E9E9E9",
"{	c #A9A9A9",
"]	c #A8A8A8",
"^	c #ADADAD",
"/	c #AFAFAF",
"(	c #EAEAEA",
"_	c #E0E0E0",
":	c #E1E1E1",
"<	c #E2E2E2",
"[	c #6F6F6F",
"}	c #AAAAAA",
"|	c #BBFFCD",
"1	c #B6FFCA",
"2	c #ABABAB",
"3	c #ACACAC",
"4	c #B2B2B2",
"5	c #F0F0F0",
"6	c #EBEBEB",
"7	c #F2F2F2",
"8	c #F3F3F3",
"9	c #F5F5F5",
"0	c #B2FFC7",
"a	c #B0B0B0",
"b	c #B1B1B1",
"c	c #AFFFC4",
"d	c #ADFFC2",
"e	c #ABFFC1",
"f	c #A9FFBF",
"g	c #EDEDED",
"h	c #EEEEEE",
"i	c #A4FFBD",
".                               ",
"..                              ",
".+.                             ",
".++.                            ",
".+++.                           ",
".++++.                          ",
".++....                         ",
".+.                             ",
"..                              ",
".           @@@@@@@@#           ",
"           @$%%&*=-;@           ",
"           @%>-,')!~@           ",
"           @%>{]{^/(@           ",
"           @&_::<~::@           ",
"           @:{~~~~{:@           ",
"           @:{{{{{{:@           ",
"           @::::::::@[[}        ",
"           @:{~~~~{:[|1[        ",
"           @:{233{45[11[        ",
"           @-,~6)789[10[        ",
"           @,/557[[[[00[[[[}    ",
"           @~ab4[|1100cdeef[    ",
"           @6)gh[1100cdeefi[    ",
"            @@@@}[[[[de[[[[     ",
"                    [ee[        ",
"                    [ef[        ",
"                    [fi[        ",
"                     [[         ",
"                                ",
"                                ",
"                                ",
"                                "};
