/* XPM */
static const char * ddDeleteTableCursor_xpm[] = {
"32 32 115 2",
"  	c None",
". 	c #000000",
"+ 	c #FFFFFF",
"@ 	c #FFFF00",
"# 	c #2195E7",
"$ 	c #8DD0FF",
"% 	c #92CFFB",
"& 	c #A2D3F5",
"* 	c #BAD8ED",
"= 	c #D1DFE9",
"- 	c #DFE3E7",
"; 	c #E5E6E7",
"> 	c #E6E6E6",
", 	c #DAE1E5",
"' 	c #ACCEE7",
") 	c #63B1E8",
"! 	c #2E9BE8",
"~ 	c #8BCFFF",
"{ 	c #85CCFE",
"] 	c #7EC8FC",
"^ 	c #75C3FA",
"/ 	c #6CBEF8",
"( 	c #61B8F6",
"_ 	c #56B2F3",
": 	c #4BACF0",
"< 	c #40A7EE",
"[ 	c #37A0EC",
"} 	c #2D9CEA",
"| 	c #2698E9",
"1 	c #85CCFD",
"2 	c #6BBEF8",
"3 	c #41A6EE",
"4 	c #36A1EC",
"5 	c #2E9CEA",
"6 	c #B4D6EE",
"7 	c #DDDDDD",
"8 	c #DEDEDE",
"9 	c #DFDFDF",
"0 	c #E0E0E0",
"a 	c #E1E1E1",
"b 	c #E2E2E2",
"c 	c #E3E3E3",
"d 	c #E5E5E5",
"e 	c #87BFE7",
"f 	c #E8E8E8",
"g 	c #E9E9E9",
"h 	c #E7E7E7",
"i 	c #A9A9A9",
"j 	c #CF6467",
"k 	c #C50000",
"l 	c #CB6265",
"m 	c #ECECEC",
"n 	c #EDEDED",
"o 	c #EFEFEF",
"p 	c #DD6969",
"q 	c #A7A7A7",
"r 	c #A8A8A8",
"s 	c #802147",
"t 	c #F67777",
"u 	c #AFAFAF",
"v 	c #A83435",
"w 	c #F15757",
"x 	c #F67676",
"y 	c #F67272",
"z 	c #F56E6E",
"A 	c #C25E64",
"B 	c #F15656",
"C 	c #EF4F4F",
"D 	c #EE4849",
"E 	c #EAEAEA",
"F 	c #F56D6D",
"G 	c #F46868",
"H 	c #F36262",
"I 	c #F05555",
"J 	c #EF4E4F",
"K 	c #EE4848",
"L 	c #ABABAB",
"M 	c #ACACAC",
"N 	c #C76064",
"O 	c #F36161",
"P 	c #F15B5B",
"Q 	c #F05454",
"R 	c #EF4D4E",
"S 	c #EE4747",
"T 	c #EBEBEB",
"U 	c #F05354",
"V 	c #EF4D4D",
"W 	c #EE4646",
"X 	c #F0F0F0",
"Y 	c #B2B2B2",
"Z 	c #F05353",
"` 	c #EF4C4C",
" .	c #EE4545",
"..	c #EC3E3F",
"+.	c #EB3838",
"@.	c #B0B0B0",
"#.	c #B1B1B1",
"$.	c #F05252",
"%.	c #EF4B4B",
"&.	c #ED4445",
"*.	c #EB3737",
"=.	c #EA3131",
"-.	c #E92B2B",
";.	c #EEEEEE",
">.	c #F05151",
",.	c #EE4A4A",
"'.	c #ED4344",
").	c #B95B62",
"!.	c #E92A2B",
"~.	c #E82525",
"{.	c #E72020",
"].	c #ED4243",
"^.	c #7E7F80",
"/.	c #BD4A4B",
"(.	c #E71F20",
".                                                               ",
". .                                                             ",
". + .                                                           ",
". + + .                                                         ",
". + + + .                   @ @ @ @ @                           ",
". + + + + .           @ @ @ @ @ @ @ @ @ @ @                     ",
". + + . . . .       @ @ @ @ @ @ @ @ @ @ @ @ @                   ",
". + .             @ @ @ @ @ @ @ @ @ @ @ @ @ @ @                 ",
". .             @ # # # # # # # # # # # # # # @ @               ",
".             @ @ # $ % & * = - ; > > , ' ) ! @ @ @             ",
"              @ @ # ~ { ] ^ / ( _ : < [ } | # @ @ @             ",
"            @ @ @ # ~ 1 ] ^ 2 ( _ : 3 4 5 | # @ @ @ @           ",
"            @ @ @ # 6 7 7 8 9 0 a b c d > e # @ @ @ @           ",
"          @ @ @ @ # 7 7 8 9 0 a b c d > f g # @ @ @ @ @         ",
"          @ @ @ @ # 7 > h f i j k l m n o p k p @ @ @ @         ",
"          @ @ @ @ # 8 q r i s k t k s u v k w k p @ @ @         ",
"          @ @ @ @ # 9 0 a b k x y z k A k B C D k @ @ @         ",
"          @ @ @ @ # 0 g g E s k F G H k I J K k p @ @ @         ",
"          @ @ @ @ # a i L M M N k O P Q R S k p @ @ @ @         ",
"            @ @ @ # > h g T m n s k U V W k p @ @ @ @           ",
"            @ @ @ # h o X X Y A k Z `  ...+.k p @ @ @           ",
"              @ @ # g @.#.Y s k $.%.&.k *.=.-.k p @             ",
"              @ @ # T m n ;.k >.,.'.k ).k !.~.{.k @             ",
"                @ # # # # # v k ].k v ^./.k (.k p               ",
"                  @ @ @ @ @ @ p k p @ @ @ p k p                 ",
"                    @ @ @ @ @ @ @ @ @ @ @ @ @                   ",
"                      @ @ @ @ @ @ @ @ @ @ @                     ",
"                            @ @ @ @ @                           ",
"                                                                ",
"                                                                ",
"                                                                ",
"                                                                "};
