/* XPM */
static const char * ddforeignkeyuniquekey_xpm[] = {
"8 10 29 1",
" 	c None",
".	c #B4B4B4",
"+	c #D5D5D5",
"@	c #BCBCBC",
"#	c #B3B3B3",
"$	c #DFDFDF",
"%	c #E0E0E0",
"&	c #E1E1E1",
"*	c #8F8F8F",
"=	c #D2D2D2",
"-	c #D9D9D9",
";	c #797979",
">	c #2C66BD",
",	c #83A5D8",
"'	c #B1B1B1",
")	c #CCCCCC",
"!	c #7CBADB",
"~	c #848484",
"{	c #B0B0B0",
"]	c #A7D4E5",
"^	c #7DB9DC",
"/	c #7DB6DD",
"(	c #D4D4D4",
"_	c #3B71C2",
":	c #7EB4DF",
"<	c #D8D8D8",
"[	c #648FCF",
"}	c #80AEE3",
"|	c #76A6E3",
"  .++.  ",
"@#$$%&.@",
"*=-;;>,*",
"@'+)>!>@",
" ~{>]^> ",
"  ;,>/> ",
"  ;(_:> ",
"  ;<[}> ",
"  {;>|> ",
"   ,>>>,"};
