/* XPM */
static const char * ddforeignkeyuniquekeyfromuk_xpm[] = {
"8 10 27 1",
" 	c None",
".	c #8BC1D8",
"+	c #BEDCE9",
"@	c #97C7DC",
"#	c #CDE4EE",
"$	c #CFE5EF",
"%	c #55A4C6",
"&	c #B9D9E7",
"*	c #C4DFEB",
"=	c #3B8EB2",
"-	c #2C66BD",
";	c #83A5D8",
">	c #87BED7",
",	c #AFD4E4",
"'	c #7CBADB",
")	c #449BC0",
"!	c #85BDD6",
"~	c #A7D4E5",
"{	c #7DB9DC",
"]	c #7DB6DD",
"^	c #BCDBE8",
"/	c #3B71C2",
"(	c #7EB4DF",
"_	c #C1DEEA",
":	c #648FCF",
"<	c #80AEE3",
"[	c #76A6E3",
"  .++.  ",
"@.##$$.@",
"%&*==-;%",
"@>+,-'-@",
" )!-~{- ",
"  =;-]- ",
"  =^/(- ",
"  =_:<- ",
"  !=-[- ",
"   ;---;"};
