/* XPM */
static const char * ddforeignkeyfromuk_xpm[] = {
"8 10 20 1",
" 	c None",
".	c #9DA5E8",
"+	c #C7CCF2",
"@	c #A6AEEB",
"#	c #D4D8F5",
"$	c #D6D9F5",
"%	c #707DDF",
"&	c #C4C9F1",
"*	c #CCD0F3",
"=	c #5362D8",
"-	c #CFD3F4",
";	c #99A2E8",
">	c #BCC2EF",
",	c #BDC3F0",
"'	c #6270DB",
")	c #98A1E7",
"!	c #C2C8F1",
"~	c #6371DC",
"{	c #CACFF3",
"]	c #D9DCF6",
"  .++.  ",
"@.##$$.@",
"%&*==-+%",
"@;+>,*.@",
" ')!!;~ ",
"  =*{=  ",
"  =+&=  ",
"  ={+=  ",
"  )=]=  ",
"   )=)  "};
