/* XPM */
static const char * ddMinMaxCursor_xpm[] = {
"32 32 226 2",
"  	c None",
". 	c #000000",
"+ 	c #A9B8C8",
"@ 	c #6F94BD",
"# 	c #4B7DB6",
"$ 	c #4378B4",
"% 	c #9AAEC5",
"& 	c #4C83BE",
"* 	c #6DB1E5",
"= 	c #76C4F6",
"- 	c #72C6F8",
"; 	c #68BFF1",
"> 	c #58A9DF",
", 	c #4681BC",
"' 	c #FFFFFF",
") 	c #A3B4C7",
"! 	c #4C84BE",
"~ 	c #74BBED",
"{ 	c #74C0F2",
"] 	c #6CBBEE",
"^ 	c #6AC0F3",
"/ 	c #5EB6EA",
"( 	c #57B5E9",
"_ 	c #4DACE1",
": 	c #4381BC",
"< 	c #6990BC",
"[ 	c #70B5E9",
"} 	c #73BFF0",
"| 	c #5FA6DB",
"1 	c #4D8BC5",
"2 	c #447BB6",
"3 	c #498AC3",
"4 	c #4B9ED5",
"5 	c #46ADE3",
"6 	c #3FA2D9",
"7 	c #5793CB",
"8 	c #77C2F3",
"9 	c #5CA0D6",
"0 	c #7E9DC0",
"a 	c #ACBAC9",
"b 	c #CBCDCF",
"c 	c #4196CE",
"d 	c #36AAE0",
"e 	c #3C88C3",
"f 	c #99AEC5",
"g 	c #6A90BC",
"h 	c #98ADC5",
"i 	c #6C92BC",
"j 	c #6BB2E6",
"k 	c #6AB6EA",
"l 	c #618BBA",
"m 	c #C3C8CD",
"n 	c #AEBBC9",
"o 	c #32A1D8",
"p 	c #2C9BD4",
"q 	c #3489C4",
"r 	c #2196D0",
"s 	c #2E88C2",
"t 	c #2195E7",
"u 	c #5382B7",
"v 	c #70BFF1",
"w 	c #5699D0",
"x 	c #93AAC4",
"y 	c #87A2C2",
"z 	c #4085C0",
"A 	c #3893CC",
"B 	c #28A4DC",
"C 	c #1DA6DD",
"D 	c #15A3DA",
"E 	c #0FA0D8",
"F 	c #4179B5",
"G 	c #D1DFE9",
"H 	c #DFE3E7",
"I 	c #E5E6E7",
"J 	c #E6E6E6",
"K 	c #ACCEE7",
"L 	c #63B1E8",
"M 	c #2E9BE8",
"N 	c #4A7CB5",
"O 	c #6DC1F4",
"P 	c #4780BB",
"Q 	c #C1C7CD",
"R 	c #4D7EB6",
"S 	c #30A9E0",
"T 	c #26A9E0",
"U 	c #16A3DB",
"V 	c #0EA0D8",
"W 	c #3184BF",
"X 	c #7F9DC0",
"Y 	c #6CBEF8",
"Z 	c #61B8F6",
"` 	c #56B2F3",
" .	c #4BACF0",
"..	c #40A7EE",
"+.	c #2D9CEA",
"@.	c #2698E9",
"#.	c #4479B4",
"$.	c #68C1F3",
"%.	c #4379B5",
"&.	c #CECFD0",
"*.	c #2E92CB",
"=.	c #17A2DB",
"-.	c #0FA0D9",
";.	c #1099D3",
">.	c #5583B8",
",.	c #75C3FA",
"'.	c #6BBEF8",
").	c #41A6EE",
"!.	c #2E9CEA",
"~.	c #4986C1",
"{.	c #BAC2CC",
"].	c #3682BD",
"^.	c #099ED7",
"/.	c #3182BD",
"(.	c #8FA7C3",
"_.	c #DEDEDE",
":.	c #DFDFDF",
"<.	c #E0E0E0",
"[.	c #E1E1E1",
"}.	c #E2E2E2",
"|.	c #E3E3E3",
"1.	c #87BFE7",
"2.	c #B3BECA",
"3.	c #7D9CC0",
"4.	c #407AB6",
"5.	c #DDDDDD",
"6.	c #E5E5E5",
"7.	c #E8E8E8",
"8.	c #E9E9E9",
"9.	c #C9CCCF",
"0.	c #A9A9A9",
"a.	c #E4E4E4",
"b.	c #ACACAC",
"c.	c #ECECEC",
"d.	c #EFEFEF",
"e.	c #EAEAEA",
"f.	c #A7A7A7",
"g.	c #ADADAD",
"h.	c #AFAFAF",
"i.	c #EBEBEB",
"j.	c #8DD0FF",
"k.	c #92CFFB",
"l.	c #BAD8ED",
"m.	c #E7E7E7",
"n.	c #EDEDED",
"o.	c #EEEEEE",
"p.	c #F0F0F0",
"q.	c #F1F1F1",
"r.	c #F3F3F3",
"s.	c #F5F5F5",
"t.	c #8BCFFF",
"u.	c #85CCFE",
"v.	c #B2B2B2",
"w.	c #B5B5B5",
"x.	c #F8F8F8",
"y.	c #F6F6F6",
"z.	c #85CCFD",
"A.	c #B0B0B0",
"B.	c #B6B6B6",
"C.	c #B8B8B8",
"D.	c #F7F7F7",
"E.	c #B4D6EE",
"F.	c #F2F2F2",
"G.	c #437BB6",
"H.	c #488BC4",
"I.	c #4DB8EC",
"J.	c #4387C1",
"K.	c #357FBB",
"L.	c #5BB6EA",
"M.	c #56BBEF",
"N.	c #4CB7EB",
"O.	c #439AD2",
"P.	c #4278B4",
"Q.	c #049CD5",
"R.	c #5090C8",
"S.	c #67C2F4",
"T.	c #5EBEF1",
"U.	c #55BBEE",
"V.	c #4BB7EB",
"W.	c #42B0E4",
"X.	c #3D7CB8",
"Y.	c #0B9CD5",
"Z.	c #457AB6",
"`.	c #75C7F8",
" +	c #6EC5F6",
".+	c #66C1F4",
"++	c #5AB7EB",
"@+	c #4C9BD2",
"#+	c #4587C1",
"$+	c #2F8BC4",
"%+	c #149BD4",
"&+	c #5C99D1",
"*+	c #6CB3E8",
"=+	c #5697CF",
"-+	c #62B0E4",
";+	c #5EB2E6",
">+	c #249BD4",
",+	c #2296CF",
"'+	c #5391CA",
")+	c #69BDF0",
"!+	c #549DD4",
"~+	c #3792CB",
"{+	c #26A3DB",
"]+	c #3686C1",
"^+	c #67B2E6",
"/+	c #66BAED",
"(+	c #56A2D9",
"_+	c #437AB6",
":+	c #4488C2",
"<+	c #409AD2",
"[+	c #36A7DD",
"}+	c #319DD5",
"|+	c #4B83BE",
"1+	c #69B6EA",
"2+	c #67BBEE",
"3+	c #58BBEE",
"4+	c #4EB0E5",
"5+	c #46AFE4",
"6+	c #3EA6DD",
"7+	c #4180BB",
"8+	c #4A83BD",
"9+	c #63AEE3",
"0+	c #61C0F2",
"a+	c #57B8EC",
"b+	c #4BA5DB",
"c+	c #4380BB",
".                       + @ # $ # @ +                           ",
". .                   % & * = - ; > , %                         ",
". ' .               ) ! ~ { ] ^ / ( _ : )                       ",
". ' ' .             < [ } | 1 2 3 4 5 6 <                       ",
". ' ' ' .         ) 7 8 9 0 a b a 0 c d e f g h                 ",
". ' ' ' ' .       i j k l m       n l o p q r s t t t t t t t t ",
". ' ' . . . .     u v w x       y z A B C D E F G H I J J K L M ",
". ' .             N O P Q       R S T C U V W X Y Z `  ...+.@.t ",
". .               #.$.%.&.      y R *.=.-.;.>.,.'.Z `  .).!.@.t ",
".                 0 ~.0           {.X ].^./.(._.:.<.[.}.|.J 1.t ",
"                    2.                3.4.3.5.:.<.[.}.|.6.7.8.t ",
"                                        9.5.J 7.0.}.a.b.c.d.e.t ",
"t t t t t t t t t t t t                 t _.f.0.0.|.6.b.g.h.i.t ",
"t j.k.l.G H I J J K L M                 t J m.i.c.n.o.p.q.r.s.t ",
"t t.u.,.Y Z `  ...+.@.t                 t m.d.p.v.o.p.w.s.x.y.t ",
"t t.z.,.'.Z `  .).!.@.t                 t 8.A.v.v.p.q.w.B.C.D.t ",
"t E.5._.:.<.[.}.|.J 1.t                 t i.c.o.p.q.F.r.s.D.D.t ",
"t 5.5.:.<.[.}.|.6.7.8.t                 t 5.5.:.<.[.}.|.6.7.8.t ",
"t 5.J 7.0.}.a.b.c.d.e.t                 t 5.J 7.0.}.a.b.c.d.e.t ",
"t _.f.0.0.|.6.b.g.h.i.t                 t _.f.0.0.|.6.b.g.h.i.t ",
"t J m.i.c.n.o.p.q.r.s.t                 t J m.i.c.n.o.p.q.r.s.t ",
"t i.c.o.p.q.F.9.s.D.D.t                 t m.d.p.v.o.p.w.s.x.y.t ",
"t t t t t t 3.G.3.t t t           2.    t 8.A.v.v.p.q.w.B.C.D.t ",
"          (.H.I.J.X {.          0 K.0   t i.c.o.p.q.F.r.s.D.D.t ",
"          >.L.M.N.O.R y       &.P.Q.#.  t t t t t t t t t t t t ",
"        X R.S.T.U.V.W.R       Q X.Y.N                           ",
"        Z.`. +.+++@+#+y       x $+%+u                           ",
"        &+*+=+-+;+l n       m l >+,+i                           ",
"        h g f '+)+!+0 a b a 0 ~+{+]+)                           ",
"              < ^+/+(+3 _+:+<+[+}+<                             ",
"              ) |+1+2+/ 3+4+5+6+7+)                             ",
"                % 8+9+; 0+a+b+c+%                               "};
