/* XPM */
static const char * ddmodel_32_xpm[] = {
"32 32 62 1",
" 	c None",
".	c #2195E7",
"+	c #8ACEFE",
"@	c #94CFF9",
"#	c #ADD5F2",
"$	c #CADCEA",
"%	c #DEE3E7",
"&	c #E6E7E7",
"*	c #E6E6E6",
"=	c #C5D8E6",
"-	c #76B9E8",
";	c #309CE8",
">	c #88CDFE",
",	c #83CBFE",
"'	c #7AC6FB",
")	c #6FC0F9",
"!	c #63B9F6",
"~	c #56B2F3",
"{	c #49ABF0",
"]	c #3DA5ED",
"^	c #319EEB",
"/	c #2799E9",
"(	c #83CBFD",
"_	c #4AABF0",
":	c #3DA4ED",
"<	c #2899E9",
"[	c #B3D5ED",
"}	c #DDDDDD",
"|	c #DEDEDE",
"1	c #DFDFDF",
"2	c #E2E2E2",
"3	c #E3E3E3",
"4	c #E5E5E5",
"5	c #87C0E7",
"6	c #000000",
"7	c #A7A7A7",
"8	c #E0E0E0",
"9	c #ACACAC",
"0	c #ECECEC",
"a	c #EEEEEE",
"b	c #E9E9E9",
"c	c #A6A6A6",
"d	c #A8A8A8",
"e	c #E1E1E1",
"f	c #ADADAD",
"g	c #AFAFAF",
"h	c #EAEAEA",
"i	c #E7E7E7",
"j	c #EBEBEB",
"k	c #E8E8E8",
"l	c #A9A9A9",
"m	c #EFEFEF",
"n	c #F1F1F1",
"o	c #EDEDED",
"p	c #AAAAAA",
"q	c #B0B0B0",
"r	c #B2B2B2",
"s	c #E4E4E4",
"t	c #F0F0F0",
"u	c #7BC6FB",
"v	c #6FC0F8",
"w	c #2899E8",
"                                ",
"                                ",
" ............                   ",
" .+@#$%&**=-;                   ",
" .>,')!~{]^/.                   ",
" .>(')!~_:^<.                   ",
" .[}}|1234*5.666666666666       ",
" .}**78390ab.           6       ",
" .}c7de49fgh.          666      ",
" .|18e2*ibhj.         66666     ",
" .1kbl3igmno.      ............ ",
" .8llp4bgqra.      .+@#$%&**=-; ",
" .e2s4*j0oat.      .>,')!~{]^/. ",
" .>,uv!~_:^w.      .>(')!~_:^<. ",
"      6            .[}}|1234*5. ",
"      6            .}**78390ab. ",
"     666           .}c7de49fgh. ",
"    66666          .|18e2*ibhj. ",
"    ............   .1kbl3igmno. ",
"    .+@#$%&**=-;   .8llp4bgqra. ",
"    .>,')!~{]^/.   .e2s4*j0oat. ",
"    .>(')!~_:^<.   .>,uv!~_:^w. ",
"    .[}}|1234*5.          6     ",
"    .}**78390ab.          6     ",
"    .}c7de49fgh.6  6      6     ",
"    .|18e2*ibhj.66 6      6     ",
"    .1kbl3igmno.66666666666     ",
"    .8llp4bgqra.66 6            ",
"    .e2s4*j0oat.6  6            ",
"    .>,uv!~_:^w.                ",
"                                ",
"                                "};
