/* XPM */
static const char * ddprimaryforeignkeyfromuk_xpm[] = {
"8 10 35 1",
" 	c None",
".	c #81C2E2",
"+	c #B8DDEF",
"@	c #C7A92C",
"#	c #EEE7B9",
"$	c #C7A92D",
"%	c #8EC8E5",
"&	c #CAE5F3",
"*	c #E0CF8B",
"=	c #DDCC7A",
"-	c #F5F1C8",
";	c #DECC7F",
">	c #47A5D4",
",	c #B4DAED",
"'	c #2C8FC1",
")	c #CBB03E",
"!	c #EDE4A8",
"~	c #C1A018",
"{	c #EEE7BA",
"]	c #7CBFE1",
"^	c #ABD6EC",
"/	c #EDE4A2",
"(	c #F3EDB1",
"_	c #EEE7B7",
":	c #359CD0",
"<	c #B2D9ED",
"[	c #DDCA72",
"}	c #F0E790",
"|	c #DDCC7B",
"1	c #BCDEEF",
"2	c #F3ECA0",
"3	c #B7DCEE",
"4	c #7BBEE0",
"5	c #CFE8F4",
"6	c #DBC777",
" .+.@#$ ",
"%.&*=-;*",
">,')!~{)",
"%]^)/(_)",
" :<][}|*",
" '1'~2~ ",
" ','~2~ ",
" '3'~2~ ",
" 45'6~~ ",
"  '4 66 "};
