/* XPM */
static const char * ddprimarykeyuniquekey_xpm[] = {
"8 10 30 1",
" 	c None",
".	c #C7A92C",
"+	c #EEE7B9",
"@	c #C7A92D",
"#	c #E0CF8B",
"$	c #DDCC7A",
"%	c #F5F1C8",
"&	c #DECC7F",
"*	c #CBB03E",
"=	c #EDE4A8",
"-	c #C1A018",
";	c #EEE7BA",
">	c #2C66BD",
",	c #83A5D8",
"'	c #EDE4A2",
")	c #F3EDB1",
"!	c #EEE7B7",
"~	c #7CBADB",
"{	c #DDCA72",
"]	c #F0E790",
"^	c #A7D4E5",
"/	c #7DB9DC",
"(	c #F3ECA0",
"_	c #7DB6DD",
":	c #3B71C2",
"<	c #7EB4DF",
"[	c #648FCF",
"}	c #80AEE3",
"|	c #DBC777",
"1	c #76A6E3",
" .+@    ",
"#$%&#   ",
"*=-;*>, ",
"*')!>~> ",
" {]>^/> ",
" -(,>_> ",
" -(-:<> ",
" -(-[}> ",
" |-->1> ",
"  |,>>>,"};
