/* XPM */
static const char * ddRemoveTable2_xpm[] = {
"16 17 112 2",
"  	c None",
". 	c #2195E7",
"+ 	c #8DD0FF",
"@ 	c #92CFFB",
"# 	c #A2D3F5",
"$ 	c #BAD8ED",
"% 	c #D1DFE9",
"& 	c #DFE3E7",
"* 	c #E5E6E7",
"= 	c #E6E6E6",
"- 	c #DAE1E5",
"; 	c #ACCEE7",
"> 	c #63B1E8",
", 	c #2E9BE8",
"' 	c #8BCFFF",
") 	c #85CCFE",
"! 	c #7EC8FC",
"~ 	c #75C3FA",
"{ 	c #6CBEF8",
"] 	c #61B8F6",
"^ 	c #56B2F3",
"/ 	c #4BACF0",
"( 	c #40A7EE",
"_ 	c #37A0EC",
": 	c #2D9CEA",
"< 	c #2698E9",
"[ 	c #85CCFD",
"} 	c #6BBEF8",
"| 	c #41A6EE",
"1 	c #36A1EC",
"2 	c #2E9CEA",
"3 	c #B4D6EE",
"4 	c #DDDDDD",
"5 	c #DEDEDE",
"6 	c #DFDFDF",
"7 	c #E0E0E0",
"8 	c #E1E1E1",
"9 	c #E2E2E2",
"0 	c #E3E3E3",
"a 	c #E5E5E5",
"b 	c #87BFE7",
"c 	c #E8E8E8",
"d 	c #E9E9E9",
"e 	c #E7E7E7",
"f 	c #A9A9A9",
"g 	c #CF6467",
"h 	c #C50000",
"i 	c #CB6265",
"j 	c #ECECEC",
"k 	c #EDEDED",
"l 	c #EFEFEF",
"m 	c #DD6969",
"n 	c #A7A7A7",
"o 	c #A8A8A8",
"p 	c #802147",
"q 	c #F67777",
"r 	c #AFAFAF",
"s 	c #A83435",
"t 	c #F15757",
"u 	c #F67676",
"v 	c #F67272",
"w 	c #F56E6E",
"x 	c #C25E64",
"y 	c #F15656",
"z 	c #EF4F4F",
"A 	c #EE4849",
"B 	c #EAEAEA",
"C 	c #F56D6D",
"D 	c #F46868",
"E 	c #F36262",
"F 	c #F05555",
"G 	c #EF4E4F",
"H 	c #EE4848",
"I 	c #ABABAB",
"J 	c #ACACAC",
"K 	c #C76064",
"L 	c #F36161",
"M 	c #F15B5B",
"N 	c #F05454",
"O 	c #EF4D4E",
"P 	c #EE4747",
"Q 	c #EBEBEB",
"R 	c #F05354",
"S 	c #EF4D4D",
"T 	c #EE4646",
"U 	c #F0F0F0",
"V 	c #B2B2B2",
"W 	c #F05353",
"X 	c #EF4C4C",
"Y 	c #EE4545",
"Z 	c #EC3E3F",
"` 	c #EB3838",
" .	c #B0B0B0",
"..	c #B1B1B1",
"+.	c #F05252",
"@.	c #EF4B4B",
"#.	c #ED4445",
"$.	c #EB3737",
"%.	c #EA3131",
"&.	c #E92B2B",
"*.	c #EEEEEE",
"=.	c #F05151",
"-.	c #EE4A4A",
";.	c #ED4344",
">.	c #B95B62",
",.	c #E92A2B",
"'.	c #E82525",
").	c #E72020",
"!.	c #ED4243",
"~.	c #7E7F80",
"{.	c #BD4A4B",
"].	c #E71F20",
". . . . . . . . . . . . . .     ",
". + @ # $ % & * = = - ; > ,     ",
". ' ) ! ~ { ] ^ / ( _ : < .     ",
". ' [ ! ~ } ] ^ / | 1 2 < .     ",
". 3 4 4 5 6 7 8 9 0 a = b .     ",
". 4 4 5 6 7 8 9 0 a = c d .     ",
". 4 = e c f g h i j k l m h m   ",
". 5 n o f p h q h p r s h t h m ",
". 6 7 8 9 h u v w h x h y z A h ",
". 7 d d B p h C D E h F G H h m ",
". 8 f I J J K h L M N O P h m   ",
". = e d Q j k p h R S T h m     ",
". e l U U V x h W X Y Z ` h m   ",
". d  ...V p h +.@.#.h $.%.&.h m ",
". Q j k *.h =.-.;.h >.h ,.'.).h ",
". . . . . s h !.h s ~.{.h ].h m ",
"            m h m       m h m   "};
