/* XPM */
static const char * ddRelationshipCursor_xpm[] = {
"32 32 66 1",
" 	c None",
".	c #000000",
"+	c #FFFFFF",
"@	c #2195E7",
"#	c #8DD0FF",
"$	c #92CFFB",
"%	c #BAD8ED",
"&	c #D1DFE9",
"*	c #DFE3E7",
"=	c #E5E6E7",
"-	c #E6E6E6",
";	c #ACCEE7",
">	c #63B1E8",
",	c #2E9BE8",
"'	c #8BCFFF",
")	c #85CCFE",
"!	c #75C3FA",
"~	c #6CBEF8",
"{	c #61B8F6",
"]	c #56B2F3",
"^	c #4BACF0",
"/	c #40A7EE",
"(	c #2D9CEA",
"_	c #2698E9",
":	c #85CCFD",
"<	c #6BBEF8",
"[	c #41A6EE",
"}	c #2E9CEA",
"|	c #B4D6EE",
"1	c #DDDDDD",
"2	c #DEDEDE",
"3	c #DFDFDF",
"4	c #E0E0E0",
"5	c #E1E1E1",
"6	c #E2E2E2",
"7	c #E3E3E3",
"8	c #87BFE7",
"9	c #E5E5E5",
"0	c #E8E8E8",
"a	c #E9E9E9",
"b	c #A9A9A9",
"c	c #E4E4E4",
"d	c #ACACAC",
"e	c #ECECEC",
"f	c #EFEFEF",
"g	c #EAEAEA",
"h	c #A7A7A7",
"i	c #ADADAD",
"j	c #AFAFAF",
"k	c #EBEBEB",
"l	c #E7E7E7",
"m	c #EDEDED",
"n	c #EEEEEE",
"o	c #F0F0F0",
"p	c #F1F1F1",
"q	c #F3F3F3",
"r	c #F5F5F5",
"s	c #B2B2B2",
"t	c #B5B5B5",
"u	c #F8F8F8",
"v	c #F6F6F6",
"w	c #B0B0B0",
"x	c #B6B6B6",
"y	c #B8B8B8",
"z	c #F7F7F7",
"A	c #F2F2F2",
".                               ",
"..                              ",
".+.                             ",
".++.                            ",
".+++.                           ",
".++++.                          ",
".++....                         ",
".+.                             ",
"..                  @@@@@@@@@@@@",
".                   @#$%&*=--;>,",
"                    @')!~{]^/(_@",
"                   .@':!<{]^[}_@",
"@@@@@@@@@@@@     ...@|1234567-8@",
"@#$%&*=--;>,   .....@113456790a@",
"@')!~{]^/(_@   . ...@1-0b6cdefg@",
"@':!<{]^[}_@   .   .@2hbb79dijk@",
"@|1234567-8@   .    @-lkemnopqr@",
"@113456790a@....    @lfosnotruv@",
"@1-0b6cdefg@        @awssoptxyz@",
"@2hbb79dijk@        @kenopAqrzz@",
"@-lkemnopqr@        @@@@@@@@@@@@",
"@lfosnotruv@                    ",
"@awssoptxyz@                    ",
"@kenopAqrzz@                    ",
"@@@@@@@@@@@@                    ",
"                                ",
"                                ",
"                                ",
"                                ",
"                                ",
"                                ",
"                                "};
